<svg width="42" height="48" viewBox="0 0 42 48" fill="none" xmlns="http://www.w3.org/2000/svg">
<path d="M42 18.0713V42.4019C41.9983 43.8861 41.3944 45.309 40.3207 46.3585C39.247 47.408 37.7912 47.9984 36.2727 48H30.5454V36.8037C30.5454 34.3292 29.5398 31.956 27.7497 30.2063C25.9595 28.4565 23.5316 27.4735 21 27.4735C18.4684 27.4735 16.0405 28.4565 14.2503 30.2063C12.4602 31.956 11.4546 34.3292 11.4546 36.8037V48H5.72728C4.20883 47.9984 2.75305 47.408 1.67934 46.3585C0.605625 45.309 0.001683 43.8861 1.54481e-05 42.4019V18.0713C-0.00198504 17.2314 0.190333 16.4019 0.562584 15.6448C0.934836 14.8878 1.47738 14.2229 2.14965 13.6997L18.6136 0.82401C19.2894 0.290816 20.1316 0 21 0C21.8684 0 22.7106 0.290816 23.3864 0.82401L39.8504 13.6997C40.5226 14.2229 41.0652 14.8878 41.4374 15.6448C41.8097 16.4019 42.002 17.2314 42 18.0713V18.0713Z" fill="white"/>
</svg>
