<svg width="38" height="44" viewBox="0 0 38 44" fill="none" xmlns="http://www.w3.org/2000/svg">
<path d="M0.500015 16.5653L0.500013 16.5642C0.498382 15.8704 0.655158 15.1851 0.958825 14.5594C1.2625 13.9337 1.70531 13.3837 2.25449 12.9507L2.25544 12.95L17.1514 1.14724L17.1531 1.14588C17.6755 0.728275 18.3273 0.5 19 0.5C19.6727 0.5 20.3245 0.728275 20.8469 1.14588L20.8486 1.14724L35.7446 12.95L35.7455 12.9507C36.2947 13.3837 36.7375 13.9337 37.0412 14.5594C37.3448 15.1851 37.5016 15.8704 37.5 16.5642L37.9996 16.5653H37.5V38.8678C37.4986 40.0944 37.0061 41.2713 36.1288 42.1401C35.2513 43.009 34.0606 43.4986 32.8176 43.5H28.1364V33.7368C28.1364 31.3343 27.1726 29.0312 25.4587 27.3338C23.7449 25.6367 21.4216 24.6841 19 24.6841C16.5784 24.6841 14.2551 25.6367 12.5413 27.3338C10.8274 29.0312 9.86364 31.3343 9.86364 33.7368V43.5H5.18237C3.93939 43.4986 2.74868 43.009 1.87123 42.1401C0.994001 41.2713 0.501444 40.0945 0.500014 38.8681L0.500015 16.5653Z" stroke="white"/>
</svg>
