<svg width="47" height="47" viewBox="0 0 47 47" fill="none" xmlns="http://www.w3.org/2000/svg">
<path d="M47 23.4986C47.0003 28.1466 45.6222 32.6902 43.0402 36.5549C40.4581 40.4196 36.788 43.4319 32.494 45.2108C28.2 46.9896 23.4749 47.4552 18.9162 46.5486C14.3576 45.642 10.1701 43.404 6.88348 40.1175C3.59681 36.831 1.35852 32.6437 0.451655 28.0851C-0.455207 23.5265 0.0100928 18.8014 1.78871 14.5072C3.56733 10.2131 6.57938 6.54283 10.444 3.96056C14.3086 1.37828 18.8521 4.62889e-08 23.5 3.86464e-08C26.586 -0.000176941 29.6418 0.607503 32.493 1.78834C35.3441 2.96918 37.9347 4.70005 40.1169 6.88212C42.2991 9.06419 44.0301 11.6547 45.2111 14.5058C46.3921 17.3569 47 20.4126 47 23.4986ZM20.7818 35.9413L38.2175 18.5124C38.3583 18.3716 38.4699 18.2045 38.5461 18.0206C38.6223 17.8366 38.6615 17.6395 38.6615 17.4404C38.6615 17.2413 38.6223 17.0441 38.5461 16.8602C38.4699 16.6762 38.3583 16.5091 38.2175 16.3683L36.0734 14.2189C35.9326 14.0781 35.7655 13.9664 35.5815 13.8902C35.3976 13.814 35.2005 13.7748 35.0014 13.7748C34.8023 13.7748 34.6051 13.814 34.4212 13.8902C34.2372 13.9664 34.0701 14.0781 33.9293 14.2189L19.7105 28.4377L13.072 21.7993C12.9313 21.6585 12.7641 21.5468 12.5802 21.4706C12.3962 21.3944 12.1991 21.3552 12 21.3552C11.8009 21.3552 11.6037 21.3944 11.4198 21.4706C11.2359 21.5468 11.0687 21.6585 10.928 21.7993L8.78252 23.942C8.64174 24.0828 8.53006 24.2499 8.45387 24.4339C8.37768 24.6178 8.33847 24.815 8.33847 25.0141C8.33847 25.2132 8.37768 25.4103 8.45387 25.5942C8.53006 25.7782 8.64174 25.9453 8.78252 26.0861L18.6378 35.9413C18.7785 36.0821 18.9457 36.1938 19.1296 36.27C19.3135 36.3462 19.5107 36.3854 19.7098 36.3854C19.9089 36.3854 20.106 36.3462 20.29 36.27C20.4739 36.1938 20.6411 36.0821 20.7818 35.9413V35.9413Z" fill="white"/>
</svg>
