<svg width="46" height="46" viewBox="0 0 46 46" fill="none" xmlns="http://www.w3.org/2000/svg">
<path d="M46 23C46 29.1 43.5768 34.9501 39.2635 39.2635C34.9501 43.5768 29.1 46 23 46C16.9186 45.9401 11.1032 43.4976 6.80278 39.1972C2.50237 34.8968 0.0599197 29.0814 0 23C0.0599197 16.9186 2.50237 11.1032 6.80278 6.80278C11.1032 2.50237 16.9186 0.0599197 23 0C29.1 0 34.9501 2.42321 39.2635 6.73654C43.5768 11.0499 46 16.9 46 23Z" fill="#0E72A4"/>
<path d="M22.998 32.4445C22.6701 32.4445 22.3556 32.3142 22.1238 32.0824C21.892 31.8505 21.7617 31.5361 21.7617 31.2082V21.3614C21.7945 21.0583 21.9382 20.7781 22.165 20.5744C22.3919 20.3708 22.686 20.2582 22.9908 20.2582C23.2956 20.2582 23.5897 20.3708 23.8165 20.5744C24.0434 20.7781 24.187 21.0583 24.2198 21.3614V31.2226C24.2161 31.5455 24.0862 31.8541 23.8578 32.0825C23.6295 32.3108 23.3209 32.4407 22.998 32.4445ZM22.998 17.667C22.6701 17.667 22.3556 17.5367 22.1238 17.3049C21.892 17.073 21.7617 16.7586 21.7617 16.4307V14.792C21.7945 14.4889 21.9382 14.2087 22.165 14.0051C22.3919 13.8015 22.686 13.6888 22.9908 13.6888C23.2956 13.6888 23.5897 13.8015 23.8165 14.0051C24.0434 14.2087 24.187 14.4889 24.2198 14.792V16.4307C24.2199 16.7561 24.0916 17.0684 23.8629 17.2998C23.6341 17.5313 23.3233 17.6632 22.998 17.667Z" fill="white"/>
</svg>
