<svg width="47" height="47" viewBox="0 0 47 47" fill="none" xmlns="http://www.w3.org/2000/svg">
<path d="M47 23.5C47 29.7326 44.5241 35.7099 40.117 40.117C35.7099 44.5241 29.7326 47 23.5 47C17.2864 46.9388 11.3446 44.4432 6.95067 40.0493C2.55676 35.6554 0.0612223 29.7136 0 23.5C0.0612223 17.2864 2.55676 11.3446 6.95067 6.95067C11.3446 2.55676 17.2864 0.0612223 23.5 0C29.7326 0 35.7099 2.47589 40.117 6.88299C44.5241 11.2901 47 17.2674 47 23.5Z" fill="#0E72A4"/>
<path d="M23.5355 30.0251C24.2296 30.0251 24.7254 30.2196 25.0228 30.6087C25.3203 30.9793 25.469 31.5073 25.469 32.1929C25.469 32.4893 25.436 32.8136 25.3699 33.1656C25.3038 33.5176 25.1798 33.8512 24.998 34.1661C24.8328 34.4626 24.5849 34.722 24.2544 34.9443C23.9404 35.1481 23.5272 35.25 23.0149 35.25C22.2712 35.25 21.7672 35.037 21.5028 34.6108C21.2384 34.1661 21.1062 33.6196 21.1062 32.9711C21.1062 32.6005 21.1475 32.2392 21.2301 31.8872C21.3127 31.5351 21.4449 31.2201 21.6267 30.9422C21.8085 30.6643 22.0564 30.442 22.3704 30.2752C22.6844 30.1084 23.0728 30.0251 23.5355 30.0251ZM25.3947 27.5238C25.279 27.7832 25.1798 27.9406 25.0972 27.9962C25.0146 28.0518 24.9071 28.0796 24.7749 28.0796H23.8825C23.238 28.0796 22.7753 27.9314 22.4943 27.6349C22.2134 27.3199 22.0729 26.9401 22.0729 26.4954C22.0729 26.0693 22.1721 25.6617 22.3704 25.2726C22.5852 24.865 22.8497 24.4759 23.1637 24.1053C23.4776 23.7347 23.8082 23.3734 24.1552 23.0214C24.5188 22.6508 24.8576 22.2895 25.1716 21.9375C25.4856 21.5669 25.7417 21.1964 25.94 20.8258C26.1549 20.4367 26.2623 20.0291 26.2623 19.6029C26.2623 19.1583 26.1301 18.7506 25.8657 18.3801C25.6178 17.991 25.2046 17.7964 24.6262 17.7964C24.18 17.7964 23.8164 17.8983 23.5355 18.1021C23.2711 18.3059 23.0562 18.5653 22.891 18.8803C22.7257 19.1953 22.6018 19.5473 22.5191 19.9364C22.4365 20.307 22.3621 20.6776 22.296 21.0481C22.263 21.2519 22.2051 21.3909 22.1225 21.465C22.0564 21.5206 21.8746 21.5484 21.5772 21.5484C20.5691 21.5484 19.8502 21.3538 19.4205 20.9648C19.0074 20.5571 18.8008 19.9364 18.8008 19.1027C18.8008 18.2318 18.9826 17.4814 19.3461 16.8515C19.7262 16.2215 20.2138 15.7027 20.8087 15.2951C21.4202 14.8875 22.106 14.591 22.8662 14.4058C23.6429 14.2019 24.4279 14.1 25.2211 14.1C26.1631 14.1 26.9646 14.239 27.6257 14.5169C28.3032 14.7763 28.8569 15.1376 29.2865 15.6008C29.7162 16.0455 30.0302 16.5736 30.2285 17.185C30.4434 17.7779 30.5508 18.3986 30.5508 19.0471C30.5508 20.0291 30.3359 20.8999 29.9063 21.6596C29.4766 22.4192 28.9725 23.1233 28.3941 23.7718C27.8157 24.4203 27.2373 25.041 26.6589 25.6339C26.097 26.2268 25.6756 26.8567 25.3947 27.5238Z" fill="white"/>
</svg>
