<svg width="48" height="48" viewBox="0 0 48 48" fill="none" xmlns="http://www.w3.org/2000/svg">
<path d="M12.5703 0C5.63831 0 0 5.63831 0 12.5703V35.4297C0 42.3577 5.63831 48 12.5703 48H35.4297C38.4777 48 41.2341 46.8667 43.4141 45.0547L43.5625 45.0234C43.5585 44.9994 43.5471 44.9771 43.5391 44.9531C46.2431 42.6491 48 39.2577 48 35.4297V12.5703C48 5.63831 42.3617 0 35.4297 0H12.5703ZM12.5703 4H35.4297C40.1537 4 44 7.84231 44 12.5703V35.4297C44 37.4777 43.2509 39.3327 42.0469 40.8047C38.8269 34.0647 31.9845 29.4719 24.3125 29.3359C29.6565 29.1639 33.9609 24.7902 33.9609 19.4062C33.9609 13.9142 29.496 9.4375 24 9.4375C18.504 9.4375 14.0391 13.9103 14.0391 19.4062C14.0391 24.7822 18.3204 29.1479 23.6484 29.3359C15.8884 29.4599 9.12225 33.9582 5.90625 40.7422C4.73025 39.2782 4 37.4497 4 35.4297V12.5703C4 7.84231 7.84231 4 12.5703 4ZM24 13.4375C27.288 13.4375 29.9609 16.1182 29.9609 19.4062C29.9609 22.6943 27.288 25.375 24 25.375C20.712 25.375 18.0391 22.6943 18.0391 19.4062C18.0391 16.1142 20.712 13.4375 24 13.4375ZM23.9688 33.3047C30.5248 33.3047 36.3999 37.3692 38.8359 43.2812C37.7879 43.7373 36.6417 44 35.4297 44H12.5703C11.3423 44 10.181 43.7336 9.125 43.2656C11.557 37.3016 17.3408 33.3047 23.9688 33.3047Z" fill="white"/>
</svg>
