<svg width="44" height="48" viewBox="0 0 44 48" fill="none" xmlns="http://www.w3.org/2000/svg">
<path d="M22.0195 47.2604L26.9869 46.114L23.1657 42.293L22.0195 47.2604Z" fill="#0E72A4"/>
<path d="M21.0396 43.9881L21.8614 40.4267C21.8635 40.4179 21.8664 40.4096 21.8687 40.4011C21.8727 40.3864 21.8766 40.3717 21.8812 40.3572C21.8859 40.3428 21.8905 40.3306 21.8955 40.3175C21.9004 40.3044 21.9048 40.2928 21.9101 40.2806C21.9163 40.2661 21.9232 40.2521 21.9301 40.2383C21.9353 40.2278 21.9407 40.2177 21.9461 40.2077C21.9542 40.1929 21.9629 40.1787 21.9718 40.1646C21.9775 40.1556 21.9832 40.1467 21.9892 40.1379C21.9989 40.1238 22.0092 40.1101 22.0198 40.0967C22.0262 40.0884 22.0327 40.0801 22.0394 40.0721C22.05 40.0591 22.0619 40.0466 22.0736 40.0344C22.0783 40.0294 22.0825 40.0238 22.0874 40.0192L33.1633 28.943C30.0713 22.5831 24.3535 18.7977 17.7928 18.7977C12.982 18.7977 8.5375 20.8569 5.27798 24.5959C1.99532 28.3616 0.145585 33.6104 0.0429688 39.422C1.98369 40.4007 9.95257 44.1611 17.7928 44.1611C18.8773 44.1594 19.961 44.1016 21.0396 43.9881V43.9881Z" fill="#0E72A4"/>
<path d="M23.8789 40.6161L37.029 27.466L41.8109 32.2478L28.6608 45.3979L23.8789 40.6161Z" fill="#0E72A4"/>
<path d="M17.7943 17.1068C22.4636 17.1068 26.2488 13.3216 26.2488 8.6523C26.2488 3.98302 22.4636 0.197815 17.7943 0.197815C13.125 0.197815 9.33984 3.98302 9.33984 8.6523C9.33984 13.3216 13.125 17.1068 17.7943 17.1068Z" fill="#0E72A4"/>
<path d="M43.9996 28.6603C43.9995 27.9915 43.8011 27.3377 43.4295 26.7817C43.0579 26.2256 42.5297 25.7922 41.9118 25.5363C41.2939 25.2804 40.614 25.2134 39.958 25.3439C39.302 25.4744 38.6995 25.7965 38.2266 26.2694L43.0091 31.0519C43.3241 30.7386 43.5739 30.3659 43.744 29.9553C43.914 29.5448 44.0009 29.1047 43.9996 28.6603V28.6603Z" fill="#0E72A4"/>
</svg>
