<svg width="48" height="48" viewBox="0 0 48 48" fill="none" xmlns="http://www.w3.org/2000/svg">
<path d="M40.3385 5.33325H7.67188C5.81536 5.33325 4.03488 6.07075 2.72213 7.3835C1.40937 8.69626 0.671875 10.4767 0.671875 12.3333V35.6666C0.671875 37.5231 1.40937 39.3036 2.72213 40.6163C4.03488 41.9291 5.81536 42.6666 7.67188 42.6666H40.3385C42.1951 42.6666 43.9755 41.9291 45.2883 40.6163C46.601 39.3036 47.3385 37.5231 47.3385 35.6666V12.3333C47.3385 10.4767 46.601 8.69626 45.2883 7.3835C43.9755 6.07075 42.1951 5.33325 40.3385 5.33325V5.33325ZM40.3385 9.99992L25.1719 20.4299C24.8172 20.6347 24.4148 20.7425 24.0052 20.7425C23.5956 20.7425 23.1933 20.6347 22.8385 20.4299L7.67188 9.99992H40.3385Z" fill="#0E72A4"/>
</svg>
