<svg width="47" height="48" viewBox="0 0 47 48" fill="none" xmlns="http://www.w3.org/2000/svg">
<path d="M47 23.9581C47 30.1907 44.5241 36.168 40.117 40.5751C35.7099 44.9822 29.7326 47.4581 23.5 47.4581C17.2864 47.3969 11.3446 44.9014 6.95067 40.5075C2.55676 36.1136 0.0612223 30.1717 0 23.9581C0.0612223 17.7445 2.55676 11.8027 6.95067 7.4088C11.3446 3.01489 17.2864 0.519352 23.5 0.45813C29.7326 0.45813 35.7099 2.93402 40.117 7.34112C44.5241 11.7482 47 17.7255 47 23.9581Z" fill="#0E72A4"/>
<path d="M30.8834 22.891H20.4765V19.1093C20.469 18.7597 20.541 18.4123 20.6882 18.0872C20.8355 17.762 21.0552 17.4657 21.3344 17.2154C21.6137 16.9651 21.9471 16.7657 22.3152 16.6289C22.6834 16.4921 23.0789 16.4205 23.4789 16.4183C23.8789 16.4161 24.2755 16.4834 24.6455 16.6162C25.0155 16.749 25.3517 16.9448 25.6346 17.192C25.9174 17.4393 26.1413 17.7332 26.2931 18.0567C26.445 18.3801 26.5219 18.7268 26.5194 19.0764V19.6633C26.5191 19.779 26.5449 19.8936 26.5954 20.0005C26.6459 20.1074 26.72 20.2045 26.8136 20.2863C26.9071 20.368 27.0183 20.4329 27.1406 20.477C27.2629 20.5211 27.3939 20.5437 27.5262 20.5434H28.8691C29.0014 20.5438 29.1326 20.5212 29.2549 20.4771C29.3773 20.433 29.4885 20.3682 29.5821 20.2865C29.6757 20.2047 29.7499 20.1075 29.8005 20.0006C29.851 19.8936 29.8768 19.779 29.8765 19.6633V19.0764C29.8794 18.3403 29.7155 17.6109 29.3943 16.9305C29.073 16.25 28.6008 15.6318 28.0049 15.1117C27.4089 14.5916 26.7011 14.1797 25.9221 13.8999C25.1431 13.6201 24.3085 13.478 23.4664 13.4816C22.6242 13.4852 21.7912 13.6345 21.0154 13.921C20.2397 14.2075 19.5365 14.6254 18.9464 15.1506C18.3563 15.6758 17.8911 16.298 17.5775 16.9812C17.2639 17.6644 17.1082 18.3951 17.1194 19.1312V22.891H16.1119C15.5778 22.8912 15.0655 23.0767 14.6878 23.4069C14.3101 23.7371 14.0978 24.1848 14.0977 24.6518V30.5208C14.0978 30.9877 14.3101 31.4355 14.6878 31.7657C15.0655 32.0958 15.5778 32.2814 16.1119 32.2815H30.8834C31.4175 32.2814 31.9298 32.0958 32.3075 31.7657C32.6852 31.4355 32.8975 30.9877 32.8977 30.5208V24.6518C32.8975 24.1848 32.6852 23.7371 32.3075 23.4069C31.9298 23.0767 31.4175 22.8912 30.8834 22.891V22.891ZM25.1765 28.4669C25.1682 28.8512 24.9877 29.2174 24.6739 29.4867C24.36 29.7559 23.9377 29.9067 23.498 29.9067C23.0582 29.9067 22.6359 29.7559 22.3221 29.4867C22.0082 29.2174 21.8277 28.8512 21.8194 28.4669V26.7062C21.8277 26.3218 22.0082 25.9557 22.3221 25.6864C22.6359 25.4172 23.0582 25.2663 23.498 25.2663C23.9377 25.2663 24.36 25.4172 24.6739 25.6864C24.9877 25.9557 25.1682 26.3218 25.1765 26.7062V28.4669Z" fill="white"/>
</svg>
