<svg width="48" height="48" viewBox="0 0 48 48" fill="none" xmlns="http://www.w3.org/2000/svg">
<circle cx="24" cy="24" r="23.5" fill="#279BD5" stroke="#279BD5"/>
<path d="M23.9941 8.25C17.287 8.25 8.11719 13.3986 8.11719 24.375C8.11719 35.0721 16.937 40.5 23.9941 40.5C36.1018 40.5 39.871 29.7267 39.871 24.375C39.871 16.4776 33.9203 8.25 23.9941 8.25ZM20.3124 9.76727C18.656 11.202 17.2808 13.5763 16.3932 16.522C15.2431 15.83 14.1867 14.973 13.2491 13.9763C15.1868 11.913 17.6371 10.4656 20.3124 9.76727ZM12.5677 14.7508C13.6179 15.8618 14.8117 16.8077 16.1119 17.5568C15.6243 19.4804 15.3368 21.6134 15.2993 23.8544H9.15481C9.26733 20.5088 10.4675 17.3156 12.5677 14.7508ZM12.5677 33.9992C10.4612 31.4344 9.26733 28.2412 9.15481 24.8956H15.2993C15.3368 27.1429 15.6243 29.2696 16.1119 31.1932C14.818 31.9487 13.6241 32.8882 12.5677 33.9992ZM13.2491 34.7801C14.1867 33.7834 15.2431 32.9263 16.3932 32.2343C17.2808 35.1737 18.656 37.5543 20.3124 38.9891C17.6371 38.2844 15.1868 36.837 13.2491 34.7801ZM23.4815 39.4208C20.8187 39.078 18.5247 36.0561 17.287 31.7265C19.1998 30.7425 21.3125 30.1902 23.4815 30.1076V39.4208ZM23.4815 29.0728C21.2188 29.149 19.0185 29.714 17.0245 30.7044C16.6057 28.9268 16.3557 26.9652 16.3182 24.8956H23.4815V29.0728V29.0728ZM23.4815 23.8544H16.3182C16.3557 21.7848 16.6057 19.8232 17.0245 18.0456C19.0248 19.036 21.225 19.601 23.4815 19.6772V23.8544ZM23.4815 18.6424C21.3063 18.5662 19.1998 18.0075 17.287 17.0235C18.5247 12.6875 20.8187 9.67205 23.4815 9.32923V18.6424ZM35.4205 14.7508C37.5207 17.3156 38.7209 20.5088 38.8334 23.8544H32.6952C32.6577 21.6071 32.3701 19.4804 31.8826 17.5568C33.1765 16.8013 34.3704 15.8618 35.4205 14.7508ZM34.7392 13.9699C33.8015 14.9666 32.7452 15.8237 31.595 16.5156C30.7074 13.5763 29.3323 11.202 27.6758 9.76093C30.3511 10.4656 32.8014 11.913 34.7392 13.9699ZM24.5067 9.32923C27.1695 9.67205 29.4635 12.6939 30.7012 17.0235C28.7884 18.0075 26.6819 18.5598 24.5067 18.6424V9.32923V9.32923ZM24.5067 19.6772C26.7694 19.601 28.9697 19.036 30.9637 18.0456C31.3825 19.8232 31.6325 21.7848 31.67 23.8544H24.5067V19.6772ZM24.5067 24.8956H31.67C31.6325 26.9652 31.3825 28.9268 30.9637 30.7044C28.9697 29.7077 26.7694 29.1427 24.5067 29.0728V24.8956V24.8956ZM24.5067 39.4208V30.1076C26.6819 30.1838 28.7884 30.7425 30.7012 31.7265C29.4635 36.0625 27.1695 39.078 24.5067 39.4208ZM27.6758 38.9827C29.3323 37.548 30.7074 35.1737 31.595 32.228C32.7452 32.92 33.8015 33.777 34.7392 34.7737C32.8014 36.837 30.3511 38.2844 27.6758 38.9827ZM35.4205 33.9992C34.3704 32.8882 33.1765 31.9487 31.8826 31.1932C32.3701 29.2696 32.6577 27.1366 32.6952 24.8956H38.8334C38.7209 28.2412 37.5207 31.4344 35.4205 33.9992Z" fill="white"/>
</svg>
