<svg width="48" height="48" viewBox="0 0 48 48" fill="none" xmlns="http://www.w3.org/2000/svg">
<circle cx="24" cy="24" r="23.5" fill="#279BD5" stroke="#279BD5"/>
<path d="M29.5749 10.3529H17.489C13.5555 10.3529 10.3555 13.5529 10.3555 17.4864V29.5725C10.3555 33.5058 13.5555 36.7058 17.489 36.7058H29.5751C33.5084 36.7058 36.7084 33.5058 36.7084 29.5725V17.4864C36.7084 13.5529 33.5084 10.3529 29.5749 10.3529V10.3529ZM35.1635 29.5725C35.1635 32.6539 32.6565 35.1609 29.5749 35.1609H17.489C14.4074 35.1609 11.9004 32.6539 11.9004 29.5725V17.4864C11.9004 14.4048 14.4074 11.8978 17.489 11.8978H29.5751C32.6565 11.8978 35.1635 14.4048 35.1635 17.4864V29.5725Z" fill="white"/>
<path d="M23.5338 16.3238C19.5605 16.3238 16.3281 19.5562 16.3281 23.5295C16.3281 27.5028 19.5605 30.7352 23.5338 30.7352C27.5071 30.7352 30.7395 27.5028 30.7395 23.5295C30.7395 19.5562 27.5071 16.3238 23.5338 16.3238V16.3238ZM23.5338 29.1902C20.4126 29.1902 17.873 26.6509 17.873 23.5295C17.873 20.4083 20.4126 17.8687 23.5338 17.8687C26.6552 17.8687 29.1946 20.4083 29.1946 23.5295C29.1946 26.6509 26.6552 29.1902 23.5338 29.1902V29.1902Z" fill="white"/>
<path d="M30.9104 13.7647C29.7363 13.7647 28.7812 14.7199 28.7812 15.8939C28.7812 17.0681 29.7363 18.0233 30.9104 18.0233C32.0846 18.0233 33.0398 17.0681 33.0398 15.8939C33.0398 14.7197 32.0846 13.7647 30.9104 13.7647ZM30.9104 16.4782C30.5883 16.4782 30.3262 16.216 30.3262 15.8939C30.3262 15.5716 30.5883 15.3096 30.9104 15.3096C31.2327 15.3096 31.4949 15.5716 31.4949 15.8939C31.4949 16.216 31.2327 16.4782 30.9104 16.4782Z" fill="white"/>
</svg>
